<svg width="68" height="50" viewBox="0 0 68 50" fill="none" xmlns="http://www.w3.org/2000/svg">
<path d="M34.4459 19.3418H34.4205C34.4205 19.3164 34.4205 19.291 34.4205 19.2655C34.4205 19.3164 34.4459 19.3418 34.4459 19.3418Z" fill="#BB1928"/>
<path d="M36.988 19.8757L36.9626 19.8503C36.9626 19.8503 36.9626 19.8503 36.988 19.8503V19.8757Z" fill="#BB1928"/>
<path d="M66.5785 30.8323C66.6801 32.3321 63.0957 32.2304 63.0703 30.8831C63.0195 27.7054 62.9432 27.7054 59.7401 27.7054H13.3208C10.7532 27.7054 10.7532 27.7054 10.7532 30.2476C10.7278 32.2304 7.29592 31.1119 7.29592 31.1119C7.29592 31.1119 7.37218 27.6546 7.24508 25.9514C7.14339 24.5023 7.75351 24.1973 9.04999 24.2227C15.5324 24.2736 22.0403 24.2736 28.5227 24.2227C29.2345 24.2227 30.3276 24.8074 30.5564 23.4092C30.7598 22.2144 30.4802 21.3755 29.1328 21.045C28.3702 20.8671 19.3202 19.3164 15.1257 19.291C10.8295 19.2656 6.94002 20.2316 4.32163 24.1719C3.63525 22.9008 4.49957 21.1467 3.38103 20.6129C2.51671 20.2061 1.16938 20.8925 0 20.9179C6.81292 14.6643 17.7949 16.9014 25.8535 19.3418C25.7772 18.5792 17.617 12.7577 16.6764 10.0376C15.4562 6.52946 16.7781 3.3518 20.0828 1.75026C24.4807 -0.385133 28.904 0.987618 31.0903 5.36009C33.2765 9.73256 34.2171 14.4609 34.4713 19.3418C33.8866 18.4012 33.3019 17.4606 32.7427 16.4946C30.8615 13.317 28.9803 10.1393 26.2602 7.59716C25.0908 6.50405 23.6418 4.92792 22.0149 6.14815C20.4133 7.36837 21.7098 9.09702 22.3708 10.4189C24.0232 13.7491 26.3619 16.5963 29.0312 19.1639C29.5142 19.6215 30.1751 19.9773 30.9123 20.1553V23.7143H39.7844V21.223C39.9115 21.4264 40.0132 21.706 40.0894 22.0111C40.2674 22.7483 40.9792 22.2653 41.4368 22.1382C44.3348 21.4009 46.8515 19.8248 49.3936 18.2741C53.4102 15.8337 57.5539 13.7491 62.1551 12.7068C62.4602 12.6306 62.7907 12.6052 63.8075 12.4526C60.5282 15.8337 61.3417 18.7317 63.8838 21.5535C62.3585 21.045 60.8587 20.4604 59.308 20.079C56.2828 19.3164 53.3339 19.6469 50.4359 20.7908C47.6904 21.8839 44.8686 22.6974 41.8944 22.9516C41.2842 23.0025 40.1403 22.6466 40.2165 23.7143C40.2674 24.5532 41.2842 24.1719 41.8944 24.1719C49.4445 24.1973 56.9946 24.2481 64.5193 24.1719C66.0955 24.1464 66.8073 24.5278 66.6293 26.231C66.4514 27.7817 66.4768 29.307 66.5785 30.8323Z" fill="#BB1928"/>
<path d="M36.988 19.8757L36.9626 19.8503C36.9626 19.8503 36.9626 19.8248 36.988 19.8248C36.988 19.8248 36.988 19.8503 36.988 19.8757Z" fill="#BB1928"/>
<path d="M56.0795 5.51267C56.1557 7.77517 55.4185 9.8343 54.1729 11.6646C50.9952 16.3676 46.3177 18.6555 40.8775 19.8249C41.5385 19.291 42.2248 18.7572 42.8604 18.1979C45.1229 16.2659 47.3854 14.3339 48.7581 11.6138C49.5462 10.0631 49.6733 8.48697 48.148 7.34301C46.6481 6.22447 45.3771 7.16506 44.3094 8.20734C41.0809 11.3596 39.098 15.3507 37.1914 19.3673H36.8355V19.3419C38.0303 13.1645 39.8606 7.26675 44.3856 2.64007C45.8601 1.14021 47.6904 0.275879 49.8004 0.0470866C53.3594 -0.359655 55.9524 1.90284 56.0795 5.51267Z" fill="#BB1928"/>
<path d="M30.1243 21.1976V24.5278H40.5724V21.1976C40.5724 20.1808 39.7589 19.3419 38.7421 19.3419H31.9546C30.9377 19.3419 30.1243 20.1808 30.1243 21.1976ZM37.2677 19.952C37.2422 19.952 37.2422 19.952 37.2422 19.952C37.2422 19.9266 37.2677 19.9266 37.2677 19.9266C37.2677 19.9012 37.2677 19.9266 37.2677 19.952Z" fill="#BB1928"/>
<path d="M36.988 19.8757L36.9626 19.8503C36.9626 19.8503 36.9626 19.8248 36.988 19.8248C36.988 19.8248 36.988 19.8503 36.988 19.8757Z" fill="#BB1928"/>
<path d="M67.0106 23.7397H7.04169V27.5784H67.0106V23.7397Z" fill="#BB1928"/>
<path d="M67.0106 26.8158H63.0195V32.3576H67.0106V26.8158Z" fill="#BB1928"/>
<path d="M11.0328 27.197H7.04169V32.3576H11.0328V27.197Z" fill="#BB1928"/>
<path d="M16.0409 33.2728C16.2951 33.2728 16.5239 33.4762 16.5239 33.7559V46.5428C16.5239 48.7799 15.3291 49.9747 13.092 49.9747H10.4227C8.18567 49.9747 6.99087 48.7799 6.99087 46.5428V33.7559C6.99087 33.5016 7.19424 33.2728 7.47387 33.2728H9.76179C10.016 33.2728 10.2448 33.4762 10.2448 33.7559V45.8818C10.2448 46.5174 10.5753 46.8478 11.2108 46.8478H12.4565C13.0666 46.8478 13.4225 46.5428 13.4225 45.8818V33.7559C13.4225 33.5016 13.6258 33.2728 13.9055 33.2728H16.0409Z" fill="#BB1928"/>
<path d="M28.8278 33.2728C29.0566 33.2728 29.2091 33.4253 29.2091 33.6541V49.5932C29.2091 49.822 29.0566 49.9746 28.8278 49.9746H26.9466C26.7432 49.9746 26.6161 49.8729 26.5144 49.6695L22.0403 40.5687V49.6187C22.0403 49.8475 21.9132 50 21.659 50H19.4219C19.1931 50 19.0406 49.8475 19.0406 49.6187V33.6795C19.0406 33.4507 19.1931 33.2982 19.4219 33.2982H21.3031C21.5064 33.2982 21.6336 33.3999 21.7352 33.6032L26.2094 42.7041V33.6541C26.2094 33.4253 26.3365 33.2728 26.5907 33.2728H28.8278Z" fill="#BB1928"/>
<path d="M41.2842 39.9332C41.2842 40.8229 40.6487 41.4839 39.7844 41.6364V41.6872C40.6487 41.8398 41.2842 42.5007 41.2842 43.3905V46.5681C41.2842 48.8052 40.064 50 37.8269 50H32.1071C31.8783 50 31.7258 49.8475 31.7258 49.6187V33.6795C31.7258 33.4253 31.8783 33.2982 32.1071 33.2982H37.8269C40.064 33.2982 41.2842 34.493 41.2842 36.7301V39.9332ZM38.2591 37.2385C38.2591 36.6284 37.954 36.2725 37.2931 36.2725H34.6747V40.0603H37.2931C37.9032 40.0603 38.2591 39.7298 38.2591 39.1197V37.2385ZM38.2591 44.1785C38.2591 43.5684 37.954 43.2125 37.2931 43.2125H34.6747V46.9494H37.2931C37.9032 46.9494 38.2591 46.6444 38.2591 45.9834V44.1785Z" fill="#BB1928"/>
<path d="M43.801 36.7046C43.801 34.4676 44.9958 33.2728 47.2328 33.2728H49.9021C52.1392 33.2728 53.334 34.4676 53.334 36.7046V46.5427C53.334 48.7798 52.1392 49.9746 49.9021 49.9746H47.2328C44.9958 49.9746 43.801 48.7798 43.801 46.5427V36.7046ZM49.3682 46.8986C49.9783 46.8986 50.3342 46.5935 50.3342 45.9326V37.2893C50.3342 36.6792 50.0038 36.3233 49.3682 36.3233H47.8429C47.2328 36.3233 46.8769 36.6538 46.8769 37.2893V45.9326C46.8769 46.5681 47.2074 46.8986 47.8429 46.8986H49.3682Z" fill="#BB1928"/>
<path d="M67.214 49.4153C67.3919 49.7458 67.2394 50 66.8581 50H64.3922C64.138 50 63.9601 49.8983 63.833 49.6695L61.3162 44.4836L58.7995 49.6695C58.6724 49.8983 58.5199 50 58.2403 50H55.7744C55.3931 50 55.2405 49.7712 55.4185 49.4153L59.4605 41.4584L55.6727 33.8829C55.4948 33.5778 55.6473 33.2982 56.0286 33.2982H58.4945C58.7487 33.2982 58.9267 33.3999 59.0538 33.6287L61.3417 38.4587L63.6296 33.6287C63.7567 33.3999 63.9092 33.2982 64.1889 33.2982H66.6547C67.036 33.2982 67.1886 33.5524 67.0106 33.8829L63.2483 41.4584L67.214 49.4153Z" fill="#BB1928"/>
</svg>
